<mxfile host="app.diagrams.net" modified="2023-12-10T19:06:36.517Z" agent="Mozilla/5.0 (X11; Linux x86_64; rv:109.0) Gecko/20100101 Firefox/115.0" etag="0CJoaJnGi_nyRN02U8hJ" version="22.1.5" type="google">
  <diagram id="R2lEEEUBdFMjLlhIrx00" name="Page-1">
    <mxGraphModel grid="1" page="1" gridSize="10" guides="1" tooltips="1" connect="1" arrows="1" fold="1" pageScale="1" pageWidth="1600" pageHeight="1200" math="0" shadow="0" extFonts="Permanent Marker^https://fonts.googleapis.com/css?family=Permanent+Marker">
      <root>
        <mxCell id="0" />
        <mxCell id="1" parent="0" />
        <mxCell id="ENX1rJLDh6_G17ylzVSc-8" style="edgeStyle=none;shape=connector;rounded=1;orthogonalLoop=1;jettySize=auto;html=1;labelBackgroundColor=default;strokeColor=default;strokeWidth=1;align=center;verticalAlign=middle;fontFamily=Helvetica;fontSize=11;fontColor=default;endArrow=none;endFill=0;" edge="1" parent="1" source="ENX1rJLDh6_G17ylzVSc-1" target="ENX1rJLDh6_G17ylzVSc-6">
          <mxGeometry relative="1" as="geometry" />
        </mxCell>
        <mxCell id="ENX1rJLDh6_G17ylzVSc-155" style="edgeStyle=none;shape=connector;rounded=1;orthogonalLoop=1;jettySize=auto;html=1;labelBackgroundColor=default;strokeColor=default;strokeWidth=1;align=center;verticalAlign=middle;fontFamily=Helvetica;fontSize=11;fontColor=default;endArrow=none;endFill=0;" edge="1" parent="1" source="ENX1rJLDh6_G17ylzVSc-1" target="ENX1rJLDh6_G17ylzVSc-11">
          <mxGeometry relative="1" as="geometry" />
        </mxCell>
        <mxCell id="ENX1rJLDh6_G17ylzVSc-157" style="edgeStyle=none;shape=link;rounded=1;orthogonalLoop=1;jettySize=auto;html=1;labelBackgroundColor=default;strokeColor=default;strokeWidth=1;align=center;verticalAlign=middle;fontFamily=Helvetica;fontSize=11;fontColor=default;endArrow=none;endFill=0;" edge="1" parent="1" source="ENX1rJLDh6_G17ylzVSc-1" target="ENX1rJLDh6_G17ylzVSc-117">
          <mxGeometry relative="1" as="geometry" />
        </mxCell>
        <mxCell id="ENX1rJLDh6_G17ylzVSc-165" style="edgeStyle=none;shape=link;rounded=1;orthogonalLoop=1;jettySize=auto;html=1;entryX=0.5;entryY=0;entryDx=0;entryDy=0;labelBackgroundColor=default;strokeColor=default;strokeWidth=1;align=center;verticalAlign=middle;fontFamily=Helvetica;fontSize=11;fontColor=default;endArrow=none;endFill=0;" edge="1" parent="1" source="ENX1rJLDh6_G17ylzVSc-1" target="ENX1rJLDh6_G17ylzVSc-139">
          <mxGeometry relative="1" as="geometry" />
        </mxCell>
        <mxCell id="EEVhK9cs7pc64kv3YlAK-48" style="edgeStyle=none;shape=connector;rounded=0;orthogonalLoop=1;jettySize=auto;html=1;entryX=0;entryY=0.5;entryDx=0;entryDy=0;labelBackgroundColor=default;strokeColor=default;align=center;verticalAlign=middle;fontFamily=Helvetica;fontSize=11;fontColor=default;endArrow=none;endFill=0;" edge="1" parent="1" source="ENX1rJLDh6_G17ylzVSc-1" target="ENX1rJLDh6_G17ylzVSc-9">
          <mxGeometry relative="1" as="geometry" />
        </mxCell>
        <mxCell id="ENX1rJLDh6_G17ylzVSc-1" value="PAYMENT" style="rounded=0;whiteSpace=wrap;html=1;" vertex="1" parent="1">
          <mxGeometry x="1029.5" y="215" width="120" height="60" as="geometry" />
        </mxCell>
        <mxCell id="ENX1rJLDh6_G17ylzVSc-7" style="edgeStyle=none;shape=connector;rounded=1;orthogonalLoop=1;jettySize=auto;html=1;exitX=0.5;exitY=1;exitDx=0;exitDy=0;entryX=0.25;entryY=0;entryDx=0;entryDy=0;labelBackgroundColor=default;strokeColor=default;strokeWidth=1;align=center;verticalAlign=middle;fontFamily=Helvetica;fontSize=11;fontColor=default;endArrow=none;endFill=0;" edge="1" parent="1" source="ENX1rJLDh6_G17ylzVSc-5" target="ENX1rJLDh6_G17ylzVSc-1">
          <mxGeometry relative="1" as="geometry" />
        </mxCell>
        <mxCell id="ENX1rJLDh6_G17ylzVSc-5" value="&lt;u&gt;p_id&lt;/u&gt;" style="ellipse;whiteSpace=wrap;html=1;fontFamily=Helvetica;fontSize=11;fontColor=default;" vertex="1" parent="1">
          <mxGeometry x="1026" y="120" width="70" height="40" as="geometry" />
        </mxCell>
        <mxCell id="ENX1rJLDh6_G17ylzVSc-6" value="p_method" style="ellipse;whiteSpace=wrap;html=1;fontFamily=Helvetica;fontSize=11;fontColor=default;" vertex="1" parent="1">
          <mxGeometry x="1116" y="120" width="70" height="40" as="geometry" />
        </mxCell>
        <mxCell id="ENX1rJLDh6_G17ylzVSc-9" value="p_amount" style="ellipse;whiteSpace=wrap;html=1;fontFamily=Helvetica;fontSize=11;fontColor=default;" vertex="1" parent="1">
          <mxGeometry x="1207" y="185" width="70" height="40" as="geometry" />
        </mxCell>
        <mxCell id="ENX1rJLDh6_G17ylzVSc-11" value="p_time" style="ellipse;whiteSpace=wrap;html=1;fontFamily=Helvetica;fontSize=11;fontColor=default;" vertex="1" parent="1">
          <mxGeometry x="1207" y="260" width="70" height="40" as="geometry" />
        </mxCell>
        <mxCell id="ObD_U0GbB0rKHwvf-HSZ-20" style="edgeStyle=none;shape=connector;rounded=0;orthogonalLoop=1;jettySize=auto;html=1;entryX=0;entryY=0.5;entryDx=0;entryDy=0;labelBackgroundColor=default;strokeColor=default;align=center;verticalAlign=middle;fontFamily=Helvetica;fontSize=11;fontColor=default;endArrow=none;endFill=0;" edge="1" parent="1" source="ENX1rJLDh6_G17ylzVSc-15" target="ObD_U0GbB0rKHwvf-HSZ-10">
          <mxGeometry relative="1" as="geometry" />
        </mxCell>
        <mxCell id="ENX1rJLDh6_G17ylzVSc-15" value="HOTEL_OWNER" style="rounded=0;whiteSpace=wrap;html=1;" vertex="1" parent="1">
          <mxGeometry x="335" y="650" width="120" height="60" as="geometry" />
        </mxCell>
        <mxCell id="ENX1rJLDh6_G17ylzVSc-19" style="edgeStyle=none;shape=connector;rounded=1;orthogonalLoop=1;jettySize=auto;html=1;labelBackgroundColor=default;strokeColor=default;strokeWidth=1;align=center;verticalAlign=middle;fontFamily=Helvetica;fontSize=11;fontColor=default;endArrow=none;endFill=0;" edge="1" parent="1" source="ENX1rJLDh6_G17ylzVSc-16" target="ENX1rJLDh6_G17ylzVSc-15">
          <mxGeometry relative="1" as="geometry" />
        </mxCell>
        <mxCell id="ENX1rJLDh6_G17ylzVSc-16" value="&lt;u&gt;ho_id&lt;/u&gt;" style="ellipse;whiteSpace=wrap;html=1;fontFamily=Helvetica;fontSize=11;fontColor=default;" vertex="1" parent="1">
          <mxGeometry x="225" y="600" width="70" height="40" as="geometry" />
        </mxCell>
        <mxCell id="ENX1rJLDh6_G17ylzVSc-20" style="edgeStyle=none;shape=connector;rounded=1;orthogonalLoop=1;jettySize=auto;html=1;exitX=1;exitY=0.5;exitDx=0;exitDy=0;entryX=0;entryY=0.5;entryDx=0;entryDy=0;labelBackgroundColor=default;strokeColor=default;strokeWidth=1;align=center;verticalAlign=middle;fontFamily=Helvetica;fontSize=11;fontColor=default;endArrow=none;endFill=0;" edge="1" parent="1" source="ENX1rJLDh6_G17ylzVSc-17" target="ENX1rJLDh6_G17ylzVSc-15">
          <mxGeometry relative="1" as="geometry" />
        </mxCell>
        <mxCell id="ENX1rJLDh6_G17ylzVSc-17" value="ho_name" style="ellipse;whiteSpace=wrap;html=1;fontFamily=Helvetica;fontSize=11;fontColor=default;" vertex="1" parent="1">
          <mxGeometry x="225" y="660" width="70" height="40" as="geometry" />
        </mxCell>
        <mxCell id="ENX1rJLDh6_G17ylzVSc-27" style="edgeStyle=none;shape=connector;rounded=1;orthogonalLoop=1;jettySize=auto;html=1;entryX=0.25;entryY=0;entryDx=0;entryDy=0;labelBackgroundColor=default;strokeColor=default;strokeWidth=1;align=center;verticalAlign=middle;fontFamily=Helvetica;fontSize=11;fontColor=default;endArrow=none;endFill=0;" edge="1" parent="1" source="ENX1rJLDh6_G17ylzVSc-18" target="ENX1rJLDh6_G17ylzVSc-15">
          <mxGeometry relative="1" as="geometry" />
        </mxCell>
        <mxCell id="ENX1rJLDh6_G17ylzVSc-18" value="ho_address" style="ellipse;whiteSpace=wrap;html=1;fontFamily=Helvetica;fontSize=11;fontColor=default;" vertex="1" parent="1">
          <mxGeometry x="280" y="510" width="70" height="40" as="geometry" />
        </mxCell>
        <mxCell id="ENX1rJLDh6_G17ylzVSc-21" value="ho_number" style="ellipse;whiteSpace=wrap;html=1;fontFamily=Helvetica;fontSize=11;fontColor=default;" vertex="1" parent="1">
          <mxGeometry x="350" y="540" width="70" height="40" as="geometry" />
        </mxCell>
        <mxCell id="ENX1rJLDh6_G17ylzVSc-29" style="edgeStyle=none;shape=connector;rounded=1;orthogonalLoop=1;jettySize=auto;html=1;entryX=0.75;entryY=0;entryDx=0;entryDy=0;labelBackgroundColor=default;strokeColor=default;strokeWidth=1;align=center;verticalAlign=middle;fontFamily=Helvetica;fontSize=11;fontColor=default;endArrow=none;endFill=0;" edge="1" parent="1" source="ENX1rJLDh6_G17ylzVSc-22" target="ENX1rJLDh6_G17ylzVSc-15">
          <mxGeometry relative="1" as="geometry" />
        </mxCell>
        <mxCell id="ENX1rJLDh6_G17ylzVSc-22" value="ho_gender" style="ellipse;whiteSpace=wrap;html=1;fontFamily=Helvetica;fontSize=11;fontColor=default;" vertex="1" parent="1">
          <mxGeometry x="425" y="540" width="70" height="40" as="geometry" />
        </mxCell>
        <mxCell id="ENX1rJLDh6_G17ylzVSc-23" value="ho_password" style="ellipse;whiteSpace=wrap;html=1;fontFamily=Helvetica;fontSize=11;fontColor=default;" vertex="1" parent="1">
          <mxGeometry x="225" y="730" width="80" height="50" as="geometry" />
        </mxCell>
        <mxCell id="ENX1rJLDh6_G17ylzVSc-26" style="edgeStyle=none;shape=connector;rounded=1;orthogonalLoop=1;jettySize=auto;html=1;exitX=1;exitY=1;exitDx=0;exitDy=0;labelBackgroundColor=default;strokeColor=default;strokeWidth=1;align=center;verticalAlign=middle;fontFamily=Helvetica;fontSize=11;fontColor=default;endArrow=none;endFill=0;" edge="1" parent="1" source="ENX1rJLDh6_G17ylzVSc-24" target="ENX1rJLDh6_G17ylzVSc-15">
          <mxGeometry relative="1" as="geometry" />
        </mxCell>
        <mxCell id="ENX1rJLDh6_G17ylzVSc-24" value="ho_email" style="ellipse;whiteSpace=wrap;html=1;fontFamily=Helvetica;fontSize=11;fontColor=default;" vertex="1" parent="1">
          <mxGeometry x="230" y="550" width="70" height="40" as="geometry" />
        </mxCell>
        <mxCell id="ENX1rJLDh6_G17ylzVSc-25" style="edgeStyle=none;shape=connector;rounded=1;orthogonalLoop=1;jettySize=auto;html=1;entryX=0.067;entryY=1.033;entryDx=0;entryDy=0;entryPerimeter=0;labelBackgroundColor=default;strokeColor=default;strokeWidth=1;align=center;verticalAlign=middle;fontFamily=Helvetica;fontSize=11;fontColor=default;endArrow=none;endFill=0;" edge="1" parent="1" source="ENX1rJLDh6_G17ylzVSc-23" target="ENX1rJLDh6_G17ylzVSc-15">
          <mxGeometry relative="1" as="geometry" />
        </mxCell>
        <mxCell id="ENX1rJLDh6_G17ylzVSc-28" style="edgeStyle=none;shape=connector;rounded=1;orthogonalLoop=1;jettySize=auto;html=1;exitX=0.5;exitY=1;exitDx=0;exitDy=0;entryX=0.408;entryY=0.033;entryDx=0;entryDy=0;entryPerimeter=0;labelBackgroundColor=default;strokeColor=default;strokeWidth=1;align=center;verticalAlign=middle;fontFamily=Helvetica;fontSize=11;fontColor=default;endArrow=none;endFill=0;" edge="1" parent="1" source="ENX1rJLDh6_G17ylzVSc-21" target="ENX1rJLDh6_G17ylzVSc-15">
          <mxGeometry relative="1" as="geometry" />
        </mxCell>
        <mxCell id="ENX1rJLDh6_G17ylzVSc-98" style="edgeStyle=none;shape=connector;rounded=1;orthogonalLoop=1;jettySize=auto;html=1;labelBackgroundColor=default;strokeColor=default;strokeWidth=1;align=center;verticalAlign=middle;fontFamily=Helvetica;fontSize=11;fontColor=default;endArrow=none;endFill=0;" edge="1" parent="1" source="ENX1rJLDh6_G17ylzVSc-30" target="ENX1rJLDh6_G17ylzVSc-94">
          <mxGeometry relative="1" as="geometry" />
        </mxCell>
        <mxCell id="38MOUHCQfQlVia6puJau-15" style="edgeStyle=none;shape=connector;rounded=0;orthogonalLoop=1;jettySize=auto;html=1;labelBackgroundColor=default;strokeColor=default;align=center;verticalAlign=middle;fontFamily=Helvetica;fontSize=11;fontColor=default;endArrow=none;endFill=0;" edge="1" parent="1" source="ENX1rJLDh6_G17ylzVSc-30" target="38MOUHCQfQlVia6puJau-14">
          <mxGeometry relative="1" as="geometry" />
        </mxCell>
        <mxCell id="EEVhK9cs7pc64kv3YlAK-26" style="edgeStyle=none;shape=connector;rounded=0;orthogonalLoop=1;jettySize=auto;html=1;entryX=0;entryY=0.5;entryDx=0;entryDy=0;labelBackgroundColor=default;strokeColor=default;align=center;verticalAlign=middle;fontFamily=Helvetica;fontSize=11;fontColor=default;endArrow=none;endFill=0;" edge="1" parent="1" source="ENX1rJLDh6_G17ylzVSc-30" target="XDUcXkjcurWNmdW9d0in-2">
          <mxGeometry relative="1" as="geometry" />
        </mxCell>
        <mxCell id="ObD_U0GbB0rKHwvf-HSZ-8" style="edgeStyle=none;shape=connector;rounded=0;orthogonalLoop=1;jettySize=auto;html=1;labelBackgroundColor=default;strokeColor=default;align=center;verticalAlign=middle;fontFamily=Helvetica;fontSize=11;fontColor=default;endArrow=none;endFill=0;" edge="1" parent="1" source="ENX1rJLDh6_G17ylzVSc-30" target="ObD_U0GbB0rKHwvf-HSZ-7">
          <mxGeometry relative="1" as="geometry" />
        </mxCell>
        <mxCell id="ObD_U0GbB0rKHwvf-HSZ-15" style="edgeStyle=none;shape=connector;rounded=0;orthogonalLoop=1;jettySize=auto;html=1;labelBackgroundColor=default;strokeColor=default;align=center;verticalAlign=middle;fontFamily=Helvetica;fontSize=11;fontColor=default;endArrow=none;endFill=0;" edge="1" parent="1" source="ENX1rJLDh6_G17ylzVSc-30" target="ENX1rJLDh6_G17ylzVSc-36">
          <mxGeometry relative="1" as="geometry" />
        </mxCell>
        <mxCell id="ObD_U0GbB0rKHwvf-HSZ-16" style="edgeStyle=none;shape=connector;rounded=0;orthogonalLoop=1;jettySize=auto;html=1;entryX=0;entryY=0.5;entryDx=0;entryDy=0;labelBackgroundColor=default;strokeColor=default;align=center;verticalAlign=middle;fontFamily=Helvetica;fontSize=11;fontColor=default;endArrow=none;endFill=0;" edge="1" parent="1" source="ENX1rJLDh6_G17ylzVSc-30" target="ENX1rJLDh6_G17ylzVSc-37">
          <mxGeometry relative="1" as="geometry" />
        </mxCell>
        <mxCell id="ENX1rJLDh6_G17ylzVSc-30" value="HOTEL" style="rounded=0;whiteSpace=wrap;html=1;" vertex="1" parent="1">
          <mxGeometry x="540" y="909.82" width="120" height="60" as="geometry" />
        </mxCell>
        <mxCell id="ENX1rJLDh6_G17ylzVSc-31" style="edgeStyle=none;shape=connector;rounded=1;orthogonalLoop=1;jettySize=auto;html=1;labelBackgroundColor=default;strokeColor=default;strokeWidth=1;align=center;verticalAlign=middle;fontFamily=Helvetica;fontSize=11;fontColor=default;endArrow=none;endFill=0;" edge="1" parent="1" source="ENX1rJLDh6_G17ylzVSc-32" target="ENX1rJLDh6_G17ylzVSc-30">
          <mxGeometry relative="1" as="geometry" />
        </mxCell>
        <mxCell id="ENX1rJLDh6_G17ylzVSc-32" value="&lt;u&gt;h_id&lt;/u&gt;" style="ellipse;whiteSpace=wrap;html=1;fontFamily=Helvetica;fontSize=11;fontColor=default;" vertex="1" parent="1">
          <mxGeometry x="537" y="813" width="70" height="40" as="geometry" />
        </mxCell>
        <mxCell id="ENX1rJLDh6_G17ylzVSc-36" value="h_location" style="ellipse;whiteSpace=wrap;html=1;fontFamily=Helvetica;fontSize=11;fontColor=default;" vertex="1" parent="1">
          <mxGeometry x="630" y="818" width="70" height="40" as="geometry" />
        </mxCell>
        <mxCell id="ENX1rJLDh6_G17ylzVSc-37" value="h_number" style="ellipse;whiteSpace=wrap;html=1;fontFamily=Helvetica;fontSize=11;fontColor=default;" vertex="1" parent="1">
          <mxGeometry x="710" y="848" width="70" height="40" as="geometry" />
        </mxCell>
        <mxCell id="ENX1rJLDh6_G17ylzVSc-42" value="h_email" style="ellipse;whiteSpace=wrap;html=1;fontFamily=Helvetica;fontSize=11;fontColor=default;" vertex="1" parent="1">
          <mxGeometry x="470" y="853" width="70" height="40" as="geometry" />
        </mxCell>
        <mxCell id="ENX1rJLDh6_G17ylzVSc-75" style="edgeStyle=none;shape=connector;rounded=1;orthogonalLoop=1;jettySize=auto;html=1;labelBackgroundColor=default;strokeColor=default;strokeWidth=1;align=center;verticalAlign=middle;fontFamily=Helvetica;fontSize=11;fontColor=default;endArrow=none;endFill=0;" edge="1" parent="1" source="ENX1rJLDh6_G17ylzVSc-47" target="ENX1rJLDh6_G17ylzVSc-30">
          <mxGeometry relative="1" as="geometry" />
        </mxCell>
        <mxCell id="ENX1rJLDh6_G17ylzVSc-47" value="h_name" style="ellipse;whiteSpace=wrap;html=1;fontFamily=Helvetica;fontSize=11;fontColor=default;" vertex="1" parent="1">
          <mxGeometry x="405" y="990" width="80" height="40" as="geometry" />
        </mxCell>
        <mxCell id="EEVhK9cs7pc64kv3YlAK-25" style="edgeStyle=none;shape=connector;rounded=0;orthogonalLoop=1;jettySize=auto;html=1;labelBackgroundColor=default;strokeColor=default;align=center;verticalAlign=middle;fontFamily=Helvetica;fontSize=11;fontColor=default;endArrow=none;endFill=0;" edge="1" parent="1" source="ENX1rJLDh6_G17ylzVSc-49" target="ENX1rJLDh6_G17ylzVSc-30">
          <mxGeometry relative="1" as="geometry" />
        </mxCell>
        <mxCell id="ObD_U0GbB0rKHwvf-HSZ-1" style="rounded=0;orthogonalLoop=1;jettySize=auto;html=1;entryX=0.5;entryY=1;entryDx=0;entryDy=0;endArrow=none;endFill=0;" edge="1" parent="1" source="ENX1rJLDh6_G17ylzVSc-49" target="ENX1rJLDh6_G17ylzVSc-15">
          <mxGeometry relative="1" as="geometry" />
        </mxCell>
        <mxCell id="ENX1rJLDh6_G17ylzVSc-49" value="OWNS" style="rhombus;whiteSpace=wrap;html=1;fontFamily=Helvetica;fontSize=11;fontColor=default;" vertex="1" parent="1">
          <mxGeometry x="350" y="899.82" width="80" height="80" as="geometry" />
        </mxCell>
        <mxCell id="ENX1rJLDh6_G17ylzVSc-151" style="edgeStyle=none;shape=connector;rounded=1;orthogonalLoop=1;jettySize=auto;html=1;labelBackgroundColor=default;strokeColor=default;strokeWidth=1;align=center;verticalAlign=middle;fontFamily=Helvetica;fontSize=11;fontColor=default;endArrow=none;endFill=0;" edge="1" parent="1" source="ENX1rJLDh6_G17ylzVSc-73" target="ENX1rJLDh6_G17ylzVSc-85">
          <mxGeometry relative="1" as="geometry" />
        </mxCell>
        <mxCell id="ENX1rJLDh6_G17ylzVSc-153" style="edgeStyle=none;shape=connector;rounded=1;orthogonalLoop=1;jettySize=auto;html=1;entryX=1;entryY=0.5;entryDx=0;entryDy=0;labelBackgroundColor=default;strokeColor=default;strokeWidth=1;align=center;verticalAlign=middle;fontFamily=Helvetica;fontSize=11;fontColor=default;endArrow=none;endFill=0;" edge="1" parent="1" source="ENX1rJLDh6_G17ylzVSc-73" target="ENX1rJLDh6_G17ylzVSc-84">
          <mxGeometry relative="1" as="geometry" />
        </mxCell>
        <mxCell id="ENX1rJLDh6_G17ylzVSc-154" style="edgeStyle=none;shape=connector;rounded=1;orthogonalLoop=1;jettySize=auto;html=1;labelBackgroundColor=default;strokeColor=default;strokeWidth=1;align=center;verticalAlign=middle;fontFamily=Helvetica;fontSize=11;fontColor=default;endArrow=none;endFill=0;" edge="1" parent="1" source="ENX1rJLDh6_G17ylzVSc-73" target="ENX1rJLDh6_G17ylzVSc-86">
          <mxGeometry relative="1" as="geometry" />
        </mxCell>
        <mxCell id="ENX1rJLDh6_G17ylzVSc-156" style="edgeStyle=none;shape=connector;rounded=1;orthogonalLoop=1;jettySize=auto;html=1;entryX=0;entryY=0.5;entryDx=0;entryDy=0;labelBackgroundColor=default;strokeColor=default;strokeWidth=1;align=center;verticalAlign=middle;fontFamily=Helvetica;fontSize=11;fontColor=default;endArrow=none;endFill=0;" edge="1" parent="1" source="ENX1rJLDh6_G17ylzVSc-73" target="ENX1rJLDh6_G17ylzVSc-117">
          <mxGeometry relative="1" as="geometry" />
        </mxCell>
        <mxCell id="EEVhK9cs7pc64kv3YlAK-49" style="edgeStyle=none;shape=connector;rounded=0;orthogonalLoop=1;jettySize=auto;html=1;labelBackgroundColor=default;strokeColor=default;align=center;verticalAlign=middle;fontFamily=Helvetica;fontSize=11;fontColor=default;endArrow=none;endFill=0;" edge="1" parent="1" source="ENX1rJLDh6_G17ylzVSc-73" target="ENX1rJLDh6_G17ylzVSc-81">
          <mxGeometry relative="1" as="geometry" />
        </mxCell>
        <mxCell id="ENX1rJLDh6_G17ylzVSc-73" value="CUSTOMER" style="rounded=0;whiteSpace=wrap;html=1;" vertex="1" parent="1">
          <mxGeometry x="560" y="220" width="115" height="50" as="geometry" />
        </mxCell>
        <mxCell id="ENX1rJLDh6_G17ylzVSc-81" value="&lt;u&gt;c_id&lt;/u&gt;" style="ellipse;whiteSpace=wrap;html=1;fontFamily=Helvetica;fontSize=11;fontColor=default;" vertex="1" parent="1">
          <mxGeometry x="607" y="330" width="70" height="40" as="geometry" />
        </mxCell>
        <mxCell id="ObD_U0GbB0rKHwvf-HSZ-18" value="" style="edgeStyle=none;shape=connector;rounded=0;orthogonalLoop=1;jettySize=auto;html=1;labelBackgroundColor=default;strokeColor=default;align=center;verticalAlign=middle;fontFamily=Helvetica;fontSize=11;fontColor=default;endArrow=none;endFill=0;" edge="1" parent="1" source="ENX1rJLDh6_G17ylzVSc-82" target="ENX1rJLDh6_G17ylzVSc-73">
          <mxGeometry relative="1" as="geometry" />
        </mxCell>
        <mxCell id="ENX1rJLDh6_G17ylzVSc-82" value="c_name" style="ellipse;whiteSpace=wrap;html=1;fontFamily=Helvetica;fontSize=11;fontColor=default;" vertex="1" parent="1">
          <mxGeometry x="646" y="120" width="70" height="40" as="geometry" />
        </mxCell>
        <mxCell id="ENX1rJLDh6_G17ylzVSc-83" value="c_number" style="ellipse;whiteSpace=wrap;html=1;fontFamily=Helvetica;fontSize=11;fontColor=default;" vertex="1" parent="1">
          <mxGeometry x="540" y="130" width="70" height="40" as="geometry" />
        </mxCell>
        <mxCell id="ENX1rJLDh6_G17ylzVSc-84" value="c_email" style="ellipse;whiteSpace=wrap;html=1;fontFamily=Helvetica;fontSize=11;fontColor=default;" vertex="1" parent="1">
          <mxGeometry x="437" y="275" width="70" height="40" as="geometry" />
        </mxCell>
        <mxCell id="ENX1rJLDh6_G17ylzVSc-85" value="c_gender" style="ellipse;whiteSpace=wrap;html=1;fontFamily=Helvetica;fontSize=11;fontColor=default;" vertex="1" parent="1">
          <mxGeometry x="435" y="185" width="70" height="40" as="geometry" />
        </mxCell>
        <mxCell id="ENX1rJLDh6_G17ylzVSc-86" value="c_password" style="ellipse;whiteSpace=wrap;html=1;fontFamily=Helvetica;fontSize=11;fontColor=default;" vertex="1" parent="1">
          <mxGeometry x="517" y="330" width="70" height="40" as="geometry" />
        </mxCell>
        <mxCell id="ENX1rJLDh6_G17ylzVSc-94" value="h_features" style="ellipse;shape=doubleEllipse;margin=3;whiteSpace=wrap;html=1;align=center;fontFamily=Helvetica;fontSize=11;fontColor=default;" vertex="1" parent="1">
          <mxGeometry x="675" y="1000" width="85" height="50" as="geometry" />
        </mxCell>
        <mxCell id="ENX1rJLDh6_G17ylzVSc-117" value="MAKE" style="rhombus;whiteSpace=wrap;html=1;fontFamily=Helvetica;fontSize=11;fontColor=default;" vertex="1" parent="1">
          <mxGeometry x="815" y="205" width="80" height="80" as="geometry" />
        </mxCell>
        <mxCell id="ENX1rJLDh6_G17ylzVSc-134" value="&lt;u&gt;r_type&lt;/u&gt;" style="ellipse;whiteSpace=wrap;html=1;fontFamily=Helvetica;fontSize=11;fontColor=default;" vertex="1" parent="1">
          <mxGeometry x="1190" y="931.8199999999999" width="70" height="40" as="geometry" />
        </mxCell>
        <mxCell id="ENX1rJLDh6_G17ylzVSc-135" value="r_price" style="ellipse;whiteSpace=wrap;html=1;fontFamily=Helvetica;fontSize=11;fontColor=default;" vertex="1" parent="1">
          <mxGeometry x="992" y="1023.41" width="70" height="40" as="geometry" />
        </mxCell>
        <mxCell id="EEVhK9cs7pc64kv3YlAK-22" style="edgeStyle=none;shape=link;rounded=0;orthogonalLoop=1;jettySize=auto;html=1;labelBackgroundColor=default;strokeColor=default;align=center;verticalAlign=middle;fontFamily=Helvetica;fontSize=11;fontColor=default;endArrow=none;endFill=0;" edge="1" parent="1" source="ENX1rJLDh6_G17ylzVSc-139" target="EEVhK9cs7pc64kv3YlAK-1">
          <mxGeometry relative="1" as="geometry" />
        </mxCell>
        <mxCell id="ENX1rJLDh6_G17ylzVSc-139" value="CONFIRMS" style="rhombus;whiteSpace=wrap;html=1;fontFamily=Helvetica;fontSize=11;fontColor=default;" vertex="1" parent="1">
          <mxGeometry x="1049.5" y="380" width="80" height="80" as="geometry" />
        </mxCell>
        <mxCell id="38MOUHCQfQlVia6puJau-16" style="edgeStyle=none;shape=connector;rounded=0;orthogonalLoop=1;jettySize=auto;html=1;labelBackgroundColor=default;strokeColor=default;align=center;verticalAlign=middle;fontFamily=Helvetica;fontSize=11;fontColor=default;endArrow=none;endFill=0;" edge="1" parent="1" source="ENX1rJLDh6_G17ylzVSc-140" target="ENX1rJLDh6_G17ylzVSc-134">
          <mxGeometry relative="1" as="geometry" />
        </mxCell>
        <mxCell id="ENX1rJLDh6_G17ylzVSc-140" value="ROOM" style="shape=ext;margin=3;double=1;whiteSpace=wrap;html=1;align=center;fontFamily=Helvetica;fontSize=11;fontColor=default;" vertex="1" parent="1">
          <mxGeometry x="1017" y="920" width="130" height="60" as="geometry" />
        </mxCell>
        <mxCell id="ENX1rJLDh6_G17ylzVSc-145" style="edgeStyle=none;shape=connector;rounded=1;orthogonalLoop=1;jettySize=auto;html=1;entryX=0.1;entryY=0.967;entryDx=0;entryDy=0;entryPerimeter=0;labelBackgroundColor=default;strokeColor=default;strokeWidth=1;align=center;verticalAlign=middle;fontFamily=Helvetica;fontSize=11;fontColor=default;endArrow=none;endFill=0;" edge="1" parent="1" source="ENX1rJLDh6_G17ylzVSc-135" target="ENX1rJLDh6_G17ylzVSc-140">
          <mxGeometry relative="1" as="geometry" />
        </mxCell>
        <mxCell id="jGBTBhinUIyrrwkKjwSk-20" value="N" style="text;html=1;align=center;verticalAlign=middle;resizable=0;points=[];autosize=1;strokeColor=none;fillColor=none;fontSize=11;fontFamily=Helvetica;fontColor=default;" vertex="1" parent="1">
          <mxGeometry x="930" y="215" width="30" height="30" as="geometry" />
        </mxCell>
        <mxCell id="jGBTBhinUIyrrwkKjwSk-21" value="1" style="text;html=1;align=center;verticalAlign=middle;resizable=0;points=[];autosize=1;strokeColor=none;fillColor=none;fontSize=11;fontFamily=Helvetica;fontColor=default;" vertex="1" parent="1">
          <mxGeometry x="745" y="215" width="30" height="30" as="geometry" />
        </mxCell>
        <mxCell id="XDUcXkjcurWNmdW9d0in-2" value="HAS" style="shape=rhombus;double=1;perimeter=rhombusPerimeter;whiteSpace=wrap;html=1;align=center;" vertex="1" parent="1">
          <mxGeometry x="775" y="911.82" width="120" height="60" as="geometry" />
        </mxCell>
        <mxCell id="38MOUHCQfQlVia6puJau-9" value="b_from" style="ellipse;whiteSpace=wrap;html=1;fontFamily=Helvetica;fontSize=11;fontColor=default;" vertex="1" parent="1">
          <mxGeometry x="1222" y="690" width="70" height="40" as="geometry" />
        </mxCell>
        <mxCell id="38MOUHCQfQlVia6puJau-10" value="b_to" style="ellipse;whiteSpace=wrap;html=1;fontFamily=Helvetica;fontSize=11;fontColor=default;" vertex="1" parent="1">
          <mxGeometry x="1306" y="683" width="70" height="40" as="geometry" />
        </mxCell>
        <mxCell id="38MOUHCQfQlVia6puJau-14" value="h_description" style="ellipse;whiteSpace=wrap;html=1;fontFamily=Helvetica;fontSize=11;fontColor=default;" vertex="1" parent="1">
          <mxGeometry x="470" y="1030" width="80" height="50" as="geometry" />
        </mxCell>
        <mxCell id="38MOUHCQfQlVia6puJau-17" value="r_amount" style="ellipse;whiteSpace=wrap;html=1;fontFamily=Helvetica;fontSize=11;fontColor=default;" vertex="1" parent="1">
          <mxGeometry x="1086" y="1023.41" width="70" height="40" as="geometry" />
        </mxCell>
        <mxCell id="EEVhK9cs7pc64kv3YlAK-6" style="rounded=0;orthogonalLoop=1;jettySize=auto;html=1;entryX=0.5;entryY=1;entryDx=0;entryDy=0;endArrow=none;endFill=0;" edge="1" parent="1" source="EEVhK9cs7pc64kv3YlAK-1" target="EEVhK9cs7pc64kv3YlAK-2">
          <mxGeometry relative="1" as="geometry" />
        </mxCell>
        <mxCell id="EEVhK9cs7pc64kv3YlAK-11" style="edgeStyle=none;shape=connector;rounded=0;orthogonalLoop=1;jettySize=auto;html=1;labelBackgroundColor=default;strokeColor=default;align=center;verticalAlign=middle;fontFamily=Helvetica;fontSize=11;fontColor=default;endArrow=none;endFill=0;" edge="1" parent="1" source="EEVhK9cs7pc64kv3YlAK-1" target="EEVhK9cs7pc64kv3YlAK-10">
          <mxGeometry relative="1" as="geometry" />
        </mxCell>
        <mxCell id="EEVhK9cs7pc64kv3YlAK-29" style="edgeStyle=none;shape=connector;rounded=0;orthogonalLoop=1;jettySize=auto;html=1;entryX=0.5;entryY=0;entryDx=0;entryDy=0;labelBackgroundColor=default;strokeColor=default;align=center;verticalAlign=middle;fontFamily=Helvetica;fontSize=11;fontColor=default;endArrow=none;endFill=0;" edge="1" parent="1" source="EEVhK9cs7pc64kv3YlAK-1" target="EEVhK9cs7pc64kv3YlAK-7">
          <mxGeometry relative="1" as="geometry" />
        </mxCell>
        <mxCell id="EEVhK9cs7pc64kv3YlAK-35" style="edgeStyle=none;shape=connector;rounded=0;orthogonalLoop=1;jettySize=auto;html=1;entryX=0;entryY=0.5;entryDx=0;entryDy=0;labelBackgroundColor=default;strokeColor=default;align=center;verticalAlign=middle;fontFamily=Helvetica;fontSize=11;fontColor=default;endArrow=none;endFill=0;" edge="1" parent="1" source="EEVhK9cs7pc64kv3YlAK-1" target="EEVhK9cs7pc64kv3YlAK-18">
          <mxGeometry relative="1" as="geometry" />
        </mxCell>
        <mxCell id="EEVhK9cs7pc64kv3YlAK-1" value="BOOKING" style="rounded=0;whiteSpace=wrap;html=1;" vertex="1" parent="1">
          <mxGeometry x="1029.5" y="590" width="120" height="60" as="geometry" />
        </mxCell>
        <mxCell id="EEVhK9cs7pc64kv3YlAK-2" value="&lt;u&gt;b_id&lt;/u&gt;" style="ellipse;whiteSpace=wrap;html=1;fontFamily=Helvetica;fontSize=11;fontColor=default;" vertex="1" parent="1">
          <mxGeometry x="1156" y="478" width="70" height="40" as="geometry" />
        </mxCell>
        <mxCell id="EEVhK9cs7pc64kv3YlAK-7" value="BOOKS" style="rhombus;whiteSpace=wrap;html=1;fontFamily=Helvetica;fontSize=11;fontColor=default;" vertex="1" parent="1">
          <mxGeometry x="1049.5" y="750" width="80" height="80" as="geometry" />
        </mxCell>
        <mxCell id="EEVhK9cs7pc64kv3YlAK-10" value="b_amount" style="ellipse;whiteSpace=wrap;html=1;fontFamily=Helvetica;fontSize=11;fontColor=default;" vertex="1" parent="1">
          <mxGeometry x="1236" y="525" width="70" height="40" as="geometry" />
        </mxCell>
        <mxCell id="EEVhK9cs7pc64kv3YlAK-37" style="edgeStyle=none;shape=connector;rounded=0;orthogonalLoop=1;jettySize=auto;html=1;labelBackgroundColor=default;strokeColor=default;align=center;verticalAlign=middle;fontFamily=Helvetica;fontSize=11;fontColor=default;endArrow=none;endFill=0;" edge="1" parent="1" source="EEVhK9cs7pc64kv3YlAK-18" target="38MOUHCQfQlVia6puJau-9">
          <mxGeometry relative="1" as="geometry" />
        </mxCell>
        <mxCell id="EEVhK9cs7pc64kv3YlAK-39" style="edgeStyle=none;shape=connector;rounded=0;orthogonalLoop=1;jettySize=auto;html=1;labelBackgroundColor=default;strokeColor=default;align=center;verticalAlign=middle;fontFamily=Helvetica;fontSize=11;fontColor=default;endArrow=none;endFill=0;" edge="1" parent="1" source="EEVhK9cs7pc64kv3YlAK-18" target="38MOUHCQfQlVia6puJau-10">
          <mxGeometry relative="1" as="geometry" />
        </mxCell>
        <mxCell id="EEVhK9cs7pc64kv3YlAK-18" value="b_bookings" style="ellipse;whiteSpace=wrap;html=1;fontFamily=Helvetica;fontSize=11;fontColor=default;" vertex="1" parent="1">
          <mxGeometry x="1222" y="615" width="70" height="40" as="geometry" />
        </mxCell>
        <mxCell id="EEVhK9cs7pc64kv3YlAK-27" style="edgeStyle=none;shape=connector;rounded=0;orthogonalLoop=1;jettySize=auto;html=1;entryX=0.008;entryY=0.383;entryDx=0;entryDy=0;entryPerimeter=0;labelBackgroundColor=default;strokeColor=default;align=center;verticalAlign=middle;fontFamily=Helvetica;fontSize=11;fontColor=default;endArrow=none;endFill=0;" edge="1" parent="1" source="XDUcXkjcurWNmdW9d0in-2" target="ENX1rJLDh6_G17ylzVSc-140">
          <mxGeometry relative="1" as="geometry" />
        </mxCell>
        <mxCell id="EEVhK9cs7pc64kv3YlAK-31" value="1" style="text;html=1;align=center;verticalAlign=middle;resizable=0;points=[];autosize=1;strokeColor=none;fillColor=none;fontSize=11;fontFamily=Helvetica;fontColor=default;" vertex="1" parent="1">
          <mxGeometry x="1096" y="308" width="30" height="30" as="geometry" />
        </mxCell>
        <mxCell id="EEVhK9cs7pc64kv3YlAK-32" value="1" style="text;html=1;align=center;verticalAlign=middle;resizable=0;points=[];autosize=1;strokeColor=none;fillColor=none;fontSize=11;fontFamily=Helvetica;fontColor=default;" vertex="1" parent="1">
          <mxGeometry x="1096" y="488" width="30" height="30" as="geometry" />
        </mxCell>
        <mxCell id="EEVhK9cs7pc64kv3YlAK-33" value="N" style="text;html=1;align=center;verticalAlign=middle;resizable=0;points=[];autosize=1;strokeColor=none;fillColor=none;fontSize=11;fontFamily=Helvetica;fontColor=default;" vertex="1" parent="1">
          <mxGeometry x="1086" y="688" width="30" height="30" as="geometry" />
        </mxCell>
        <mxCell id="EEVhK9cs7pc64kv3YlAK-43" value="1" style="text;html=1;align=center;verticalAlign=middle;resizable=0;points=[];autosize=1;strokeColor=none;fillColor=none;fontSize=11;fontFamily=Helvetica;fontColor=default;" vertex="1" parent="1">
          <mxGeometry x="716" y="908" width="30" height="30" as="geometry" />
        </mxCell>
        <mxCell id="EEVhK9cs7pc64kv3YlAK-44" value="N" style="text;html=1;align=center;verticalAlign=middle;resizable=0;points=[];autosize=1;strokeColor=none;fillColor=none;fontSize=11;fontFamily=Helvetica;fontColor=default;" vertex="1" parent="1">
          <mxGeometry x="916" y="908" width="30" height="30" as="geometry" />
        </mxCell>
        <mxCell id="EEVhK9cs7pc64kv3YlAK-45" value="1" style="text;html=1;align=center;verticalAlign=middle;resizable=0;points=[];autosize=1;strokeColor=none;fillColor=none;fontSize=11;fontFamily=Helvetica;fontColor=default;" vertex="1" parent="1">
          <mxGeometry x="395" y="755" width="30" height="30" as="geometry" />
        </mxCell>
        <mxCell id="EEVhK9cs7pc64kv3YlAK-46" value="N" style="text;html=1;align=center;verticalAlign=middle;resizable=0;points=[];autosize=1;strokeColor=none;fillColor=none;fontSize=11;fontFamily=Helvetica;fontColor=default;" vertex="1" parent="1">
          <mxGeometry x="455" y="908" width="30" height="30" as="geometry" />
        </mxCell>
        <mxCell id="EEVhK9cs7pc64kv3YlAK-47" style="edgeStyle=none;shape=connector;rounded=0;orthogonalLoop=1;jettySize=auto;html=1;exitX=0.5;exitY=0;exitDx=0;exitDy=0;entryX=0.808;entryY=0.967;entryDx=0;entryDy=0;entryPerimeter=0;labelBackgroundColor=default;strokeColor=default;align=center;verticalAlign=middle;fontFamily=Helvetica;fontSize=11;fontColor=default;endArrow=none;endFill=0;" edge="1" parent="1" source="38MOUHCQfQlVia6puJau-17" target="ENX1rJLDh6_G17ylzVSc-140">
          <mxGeometry relative="1" as="geometry" />
        </mxCell>
        <mxCell id="Ey0GIloGfwRgkIBDHp9l-2" style="edgeStyle=none;shape=connector;rounded=0;orthogonalLoop=1;jettySize=auto;html=1;entryX=0.554;entryY=0;entryDx=0;entryDy=0;entryPerimeter=0;labelBackgroundColor=default;strokeColor=default;align=center;verticalAlign=middle;fontFamily=Helvetica;fontSize=11;fontColor=default;endArrow=none;endFill=0;" edge="1" parent="1" source="EEVhK9cs7pc64kv3YlAK-7" target="ENX1rJLDh6_G17ylzVSc-140">
          <mxGeometry relative="1" as="geometry" />
        </mxCell>
        <mxCell id="ObD_U0GbB0rKHwvf-HSZ-2" style="rounded=0;orthogonalLoop=1;jettySize=auto;html=1;entryX=0.167;entryY=0.003;entryDx=0;entryDy=0;entryPerimeter=0;endArrow=none;endFill=0;" edge="1" parent="1" source="ENX1rJLDh6_G17ylzVSc-42" target="ENX1rJLDh6_G17ylzVSc-30">
          <mxGeometry relative="1" as="geometry" />
        </mxCell>
        <mxCell id="ObD_U0GbB0rKHwvf-HSZ-7" value="h_image" style="ellipse;shape=doubleEllipse;margin=3;whiteSpace=wrap;html=1;align=center;fontFamily=Helvetica;fontSize=11;fontColor=default;" vertex="1" parent="1">
          <mxGeometry x="580" y="1029.9999999999998" width="85" height="50" as="geometry" />
        </mxCell>
        <mxCell id="ObD_U0GbB0rKHwvf-HSZ-21" style="edgeStyle=none;shape=connector;rounded=0;orthogonalLoop=1;jettySize=auto;html=1;entryX=0;entryY=1;entryDx=0;entryDy=0;labelBackgroundColor=default;strokeColor=default;align=center;verticalAlign=middle;fontFamily=Helvetica;fontSize=11;fontColor=default;endArrow=none;endFill=0;" edge="1" parent="1" source="ObD_U0GbB0rKHwvf-HSZ-10" target="ENX1rJLDh6_G17ylzVSc-1">
          <mxGeometry relative="1" as="geometry" />
        </mxCell>
        <mxCell id="ObD_U0GbB0rKHwvf-HSZ-10" value="COLLECTS" style="rhombus;whiteSpace=wrap;html=1;fontFamily=Helvetica;fontSize=11;fontColor=default;rotation=-5;" vertex="1" parent="1">
          <mxGeometry x="710" y="580" width="80" height="80" as="geometry" />
        </mxCell>
        <mxCell id="ObD_U0GbB0rKHwvf-HSZ-13" value="1" style="text;html=1;align=center;verticalAlign=middle;resizable=0;points=[];autosize=1;strokeColor=none;fillColor=none;fontSize=11;fontFamily=Helvetica;fontColor=default;" vertex="1" parent="1">
          <mxGeometry x="580" y="620" width="30" height="30" as="geometry" />
        </mxCell>
        <mxCell id="ObD_U0GbB0rKHwvf-HSZ-14" value="N" style="text;html=1;align=center;verticalAlign=middle;resizable=0;points=[];autosize=1;strokeColor=none;fillColor=none;fontSize=11;fontFamily=Helvetica;fontColor=default;rotation=-30;" vertex="1" parent="1">
          <mxGeometry x="840" y="458" width="30" height="30" as="geometry" />
        </mxCell>
        <mxCell id="ObD_U0GbB0rKHwvf-HSZ-17" style="edgeStyle=none;shape=connector;rounded=0;orthogonalLoop=1;jettySize=auto;html=1;entryX=0.339;entryY=-0.02;entryDx=0;entryDy=0;entryPerimeter=0;labelBackgroundColor=default;strokeColor=default;align=center;verticalAlign=middle;fontFamily=Helvetica;fontSize=11;fontColor=default;endArrow=none;endFill=0;" edge="1" parent="1" source="ENX1rJLDh6_G17ylzVSc-83" target="ENX1rJLDh6_G17ylzVSc-73">
          <mxGeometry relative="1" as="geometry" />
        </mxCell>
        <mxCell id="ObD_U0GbB0rKHwvf-HSZ-22" value="M" style="text;html=1;align=center;verticalAlign=middle;resizable=0;points=[];autosize=1;strokeColor=none;fillColor=none;fontSize=11;fontFamily=Helvetica;fontColor=default;" vertex="1" parent="1">
          <mxGeometry x="1086" y="858" width="30" height="30" as="geometry" />
        </mxCell>
      </root>
    </mxGraphModel>
  </diagram>
</mxfile>
